# xmcd
#
# Track frame offsets: 
#        187
#        7762
#        27940
#        53582
#        71077
#        97060
#        117660
#        140147
#
# Disc length: 2156 seconds
#
# Revision: 0
# Processed by: cddbd v1.5.2PL0 Copyright (c) Steve Scherf et al.
# Submitted via: ExactAudioCopy v1.3
#
DISCID=6d086a08
DTITLE=須賀響子 - 新しいような古いような
DYEAR=1995
DGENRE=JPop
TTITLE0=君の部屋を出ておいで
TTITLE1=青空ある限り
TTITLE2=黄色いハンカチ
TTITLE3=僕が君なら
TTITLE4=タクシー
TTITLE5=近道したい
TTITLE6=想い出のフォトグラフ
TTITLE7=みんなの願いただひとつ
EXTD=
EXTT0=
EXTT1=
EXTT2=
EXTT3=
EXTT4=
EXTT5=
EXTT6=
EXTT7=
PLAYORDER=
